<svg width="103" height="32" viewBox="0 0 103 32" fill="none" xmlns="http://www.w3.org/2000/svg">
<g clip-path="url(#clip0_1_794)">
<path fill-rule="evenodd" clip-rule="evenodd" d="M24.8247 18.8648C24.8247 11.7023 19.2675 5.89612 12.4124 5.89612C5.55716 5.89612 0 11.7023 0 18.8648C0 26.0273 5.55716 31.8335 12.4124 31.8335C19.2675 31.8335 24.8247 26.0273 24.8247 18.8648ZM12.4123 12.4159C15.6712 12.4159 18.3133 15.2905 18.3133 18.8363C18.3133 22.3822 15.6712 25.2568 12.4123 25.2568C9.15345 25.2568 6.51141 22.3822 6.51141 18.8363C6.51141 15.2905 9.15345 12.4159 12.4123 12.4159Z" fill="#ED2590"/>
<path fill-rule="evenodd" clip-rule="evenodd" d="M38.9328 5.66968C31.9242 6.3403 28.352 10.4978 28.2161 18.1422V31.3235H34.8631V17.0084C34.8114 14.2809 36.2132 12.958 39.0684 13.0398L38.9328 5.66968Z" fill="#ED2590"/>
<path fill-rule="evenodd" clip-rule="evenodd" d="M42.731 0V31.3232H48.9711V22.2522C54.1155 21.5597 56.6025 24.5833 56.432 31.3232H62.6721C63.0014 23.2392 60.2883 18.2785 55.0755 17.0081L63.6218 6.37802H55.8895L49.1067 15.449V0H42.731Z" fill="#ED2590"/>
<path fill-rule="evenodd" clip-rule="evenodd" d="M66.6063 6.66123L66.742 22.3937C67.8706 34.7222 86.7267 35.6715 88.311 22.3937L88.4466 6.66123L81.7996 6.51949L81.9353 19.4173C81.6522 27.5436 73.106 27.4019 72.9821 19.4173V6.37775L66.6063 6.66123Z" fill="#ED2590"/>
<path fill-rule="evenodd" clip-rule="evenodd" d="M91.8376 0.28363L91.9733 19.7012C91.8008 26.6543 96.5035 31.9928 102.69 31.7486L102.554 24.9453C100.441 24.7198 99.0848 23.2079 98.4846 20.4098V13.1814H102.69V6.37816H98.349V0.28363H91.8376Z" fill="#ED2590"/>
</g>
<defs>
<clipPath id="clip0_1_794">
<rect width="102.69" height="32" fill="white"/>
</clipPath>
</defs>
</svg>
